<?xml version="1.0" encoding="utf-8"?>
<!-- Generator: Adobe Illustrator 24.0.0, SVG Export Plug-In . SVG Version: 6.00 Build 0)  -->
<svg version="1.1" id="Layer_1" xmlns="http://www.w3.org/2000/svg" xmlns:xlink="http://www.w3.org/1999/xlink" x="0px" y="0px"
	 viewBox="0 0 284.93 157.53" style="enable-background:new 0 0 284.93 157.53;" xml:space="preserve">
<style type="text/css">
	.st0{fill-rule:evenodd;clip-rule:evenodd;fill:#0072BC;}
	.st1{fill-rule:evenodd;clip-rule:evenodd;fill:#00AEEF;}
	.st2{fill-rule:evenodd;clip-rule:evenodd;fill:#00A651;}
	.st3{fill-rule:evenodd;clip-rule:evenodd;fill:#FDB933;}
	.st4{fill-rule:evenodd;clip-rule:evenodd;fill:#ED1C24;}
</style>
<g>
	<path class="st0" d="M43.39,102.24c1.18-0.03,2.23-0.07,3.19-0.11c-0.88-2.65-1.86-5.46-2.92-8.36c-1.09-2.9-2.13-5.77-3.17-8.63
		l-0.19,0.45c-1.12,2.82-2.17,5.5-3.14,8.03c-1.22,3.08-2.24,5.92-3.11,8.5c0.52,0.03,1.47,0.07,2.86,0.11
		c1.38,0.05,2.43,0.06,3.14,0.06h0.26C41.29,102.28,42.32,102.27,43.39,102.24z M54.97,104.28c0,0.26,0.01,0.63,0.07,1.14
		c0.06,0.47,0.11,0.82,0.17,1.04h-0.61c-0.46-0.59-1.28-0.98-2.47-1.17c-1.16-0.17-2.51-0.25-4.05-0.25H36.34
		c-1.83,0-3.29,0.06-4.39,0.22c-1.11,0.15-1.91,0.55-2.43,1.2h-0.58c0.07-0.33,0.13-0.65,0.16-0.97c0.03-0.33,0.04-0.73,0.04-1.2
		c0-0.43-0.03-0.87-0.07-1.27c-0.07-0.4-0.09-0.7-0.13-0.89h1.7c1.17-2.71,2.32-5.44,3.43-8.14c1.33-3.18,2.44-5.89,3.3-8.15
		c0.93-2.33,1.9-4.95,2.92-7.84c0.07-0.18,0.13-0.34,0.19-0.5c0.18,0,0.47,0.02,0.83,0.07c0.37,0.05,0.64,0.08,0.83,0.08
		c0.22,0,0.51-0.03,0.89-0.08c0.37-0.04,0.65-0.07,0.82-0.07c1.36,3.77,2.89,7.91,4.61,12.37c1.52,3.95,3.11,8.04,4.81,12.25h1.93
		c-0.06,0.38-0.1,0.76-0.14,1.18C55.05,103.7,55,104.02,54.97,104.28z M63.12,89.5c-0.42,1.12-0.63,2.47-0.63,4.02h6.32
		c0-1.55-0.17-2.9-0.52-4.02c-0.5-1.6-1.27-2.4-2.33-2.4c-0.1,0-0.21,0-0.31,0.02C64.52,87.25,63.67,88.04,63.12,89.5z
		 M70.86,102.49c0.8-0.33,1.55-0.78,2.24-1.34l0.42,0.35l-0.84,2.26c-1.71,1.21-3.59,1.81-5.69,1.81c-0.46,0-0.91-0.03-1.34-0.06
		c-2.65-0.24-4.75-1.13-6.31-2.74c-1.83-1.85-2.74-4.45-2.74-7.78c0-2.9,0.84-5.24,2.52-7.01c1.62-1.71,3.8-2.6,6.54-2.66h0.29
		c2.94,0,5.11,0.97,6.52,2.9c1.23,1.67,1.83,4.09,1.83,7.22h-11.8c0,2.27,0.44,4.06,1.35,5.35c0.48,0.71,1.09,1.24,1.81,1.59
		c0.78,0.41,1.72,0.59,2.78,0.59C69.25,102.97,70.07,102.81,70.86,102.49z M86.42,88.06v17.15c-0.29,0-0.81-0.03-1.52-0.1
		c-0.74-0.06-1.13-0.1-1.22-0.1c-0.28,0-0.81,0.04-1.54,0.1c-0.76,0.07-1.14,0.1-1.2,0.1V88.06c-1.77,0-2.96,0.05-3.58,0.09
		c-0.9,0.13-1.72,0.22-2.49,0.27c0-0.15,0.03-0.4,0.08-0.76c0.07-0.34,0.1-0.54,0.1-0.6c0-0.19-0.02-0.45-0.1-0.79
		c-0.05-0.34-0.08-0.5-0.08-0.54h17.69c0,0.17-0.04,0.43-0.12,0.73c-0.05,0.35-0.09,0.54-0.09,0.6c0,0.19,0.04,0.46,0.09,0.79
		c0.08,0.33,0.12,0.53,0.12,0.57c-1.02-0.09-1.91-0.18-2.63-0.25C89.21,88.11,88.03,88.06,86.42,88.06z M108.4,91.27h-0.92
		c-0.16-1.2-0.57-2.17-1.24-2.91c-0.73-0.82-1.68-1.26-2.87-1.26c-1.67,0-2.95,0.95-3.83,2.82c-0.7,1.48-1.04,3.2-1.04,5.17
		c0,2.52,0.49,4.46,1.44,5.82c0.96,1.39,2.48,2.06,4.59,2.06c0.81,0,1.58-0.18,2.33-0.5c0.75-0.36,1.37-0.82,1.85-1.42l0.68,0.57
		l-1,2.38c-0.48,0.49-1.28,0.89-2.39,1.15c-1.13,0.28-2.12,0.43-2.94,0.43c-3.16,0-5.67-0.81-7.52-2.49
		c-1.95-1.74-2.92-4.16-2.92-7.26c0-3.2,0.95-5.77,2.85-7.65c1.89-1.9,4.43-2.85,7.62-2.85c1.23,0,2.43,0.13,3.63,0.41
		c1.19,0.29,2.25,0.73,3.2,1.37L108.4,91.27z M112.74,85.73c0.88,0.1,1.46,0.17,1.75,0.18c0.31,0.01,0.64,0.01,0.98,0.01
		c0.82,0,1.74-0.06,2.74-0.2v8.58c0.09,0.08,0.19,0.09,0.37,0.03c1.21-1.26,2.5-2.64,3.81-4.14c1.67-1.96,2.96-3.44,3.84-4.47
		c0.19,0,0.46,0.04,0.83,0.08c0.38,0.06,0.67,0.09,0.88,0.09c0.2,0,0.47-0.03,0.85-0.09c0.37-0.04,0.64-0.08,0.82-0.08v0.24
		c-0.71,0.91-1.51,1.84-2.42,2.74c-2.62,2.67-4.04,4.13-4.25,4.41l3.22,5.11c1.36,2.2,2.66,4.42,3.9,6.71v0.29
		c-0.31,0-0.88-0.04-1.71-0.1c-0.83-0.07-1.27-0.1-1.31-0.1c-0.35,0-0.85,0.03-1.52,0.1c-0.67,0.07-1.19,0.1-1.52,0.1
		c-0.77-1.47-1.51-2.81-2.2-4.01c-0.91-1.57-1.72-2.92-2.47-4.05c-0.19-0.3-0.35-0.55-0.52-0.73c-0.16-0.18-0.36-0.39-0.6-0.57v9.36
		c-0.28,0-0.8-0.04-1.55-0.1c-0.73-0.07-1.14-0.1-1.19-0.1c-0.3,0-0.81,0.03-1.54,0.1c-0.74,0.07-1.14,0.1-1.19,0.1V85.73z
		 M139.17,97.99c1.33-1.69,2.72-3.64,4.17-5.82c1.07-1.66,2.41-3.81,3.98-6.44l2.07,0.1l1.99-0.1v19.48c-0.29,0-0.79-0.03-1.54-0.1
		c-0.73-0.07-1.13-0.1-1.2-0.1c-0.46,0-0.8,0-1.04,0.02c-0.24,0.02-0.81,0.07-1.72,0.17V92.8c-1.53,1.99-3.02,4.06-4.44,6.27
		c-1.3,1.97-2.52,4.01-3.69,6.14c-0.13,0-0.43-0.04-0.87-0.1c-0.46-0.07-0.82-0.1-1.12-0.1c-0.47,0-0.91,0.02-1.3,0.1
		c-0.37,0.06-0.63,0.1-0.76,0.1v-19.5c0.76,0.06,1.33,0.1,1.7,0.12c0.37,0.02,0.71,0.04,1.03,0.04c0.77,0,1.33,0,1.71-0.02
		c0.46-0.09,0.81-0.11,1.03-0.11V97.99z M157.92,78.66c1.05,1.01,2.13,1.79,3.26,2.29c1.11,0.52,2.24,0.78,3.4,0.78
		c2.38,0,4.65-1.03,6.86-3.07l1.25,1.76c-1.14,1.13-2.4,1.99-3.81,2.59c-1.43,0.6-2.86,0.9-4.35,0.9c-1.46,0-2.87-0.27-4.19-0.85
		c-1.33-0.55-2.58-1.42-3.74-2.58L157.92,78.66z M161.29,98c1.35-1.68,2.72-3.63,4.16-5.82c1.09-1.65,2.44-3.81,4-6.45l2.07,0.13
		l2-0.13v19.5c-0.3,0-0.81-0.03-1.53-0.11c-0.74-0.06-1.14-0.1-1.21-0.1c-0.44,0-0.79,0.01-1.03,0.03
		c-0.24,0.01-0.83,0.06-1.71,0.17V92.82c-1.56,2-3.05,4.1-4.5,6.28c-1.27,1.96-2.51,4.02-3.67,6.13c-0.14,0-0.43-0.03-0.88-0.11
		c-0.46-0.06-0.82-0.1-1.12-0.1c-0.47,0-0.9,0.03-1.29,0.1c-0.38,0.08-0.64,0.11-0.76,0.11v-19.5c0.76,0.05,1.33,0.09,1.7,0.11
		c0.37,0.05,0.72,0.06,1.04,0.06c0.77,0,1.35-0.02,1.72-0.03c0.47-0.09,0.81-0.13,1.03-0.13V98z M206.14,91.38
		c-1.41,3.54-2.46,6.32-3.2,8.39c-0.7,2.07-1.27,3.88-1.65,5.44c-0.24,0-0.6-0.03-1.08-0.1c-0.48-0.06-0.85-0.08-1.11-0.08
		c-0.27,0-0.65,0.03-1.16,0.08c-0.51,0.07-0.88,0.1-1.1,0.1l-4.86-13.83c-0.44,1.99-0.88,4.3-1.33,6.9
		c-0.48,2.59-0.85,4.91-1.15,6.93h-3.13c0.88-3.17,1.75-6.4,2.61-9.67c0.87-3.28,1.69-6.56,2.47-9.85c0.23,0,0.6,0.03,1.07,0.1
		c0.48,0.09,0.83,0.12,1.08,0.12c0.23,0,0.63-0.03,1.17-0.12c0.54-0.07,0.85-0.1,0.94-0.1l4.81,13.32c1.61-4.44,3.26-8.87,4.9-13.32
		c0.24,0,0.59,0.03,1.07,0.1c0.48,0.09,0.84,0.12,1.11,0.12c0.25,0,0.6-0.03,1.06-0.12c0.49-0.07,0.86-0.1,1.1-0.1
		c0.74,3.91,1.41,7.16,1.98,9.78c0.77,3.35,1.65,6.59,2.63,9.75c-0.32,0-0.8-0.03-1.44-0.1c-0.63-0.06-1.12-0.08-1.47-0.08
		c-0.33,0-0.82,0.03-1.49,0.08c-0.64,0.07-1.14,0.1-1.46,0.1L206.14,91.38z M222.94,98c1.33-1.69,2.71-3.63,4.17-5.82
		c1.09-1.65,2.41-3.81,3.98-6.45l2.08,0.1l1.98-0.1v19.5c-0.3,0-0.81-0.03-1.54-0.11c-0.72-0.06-1.13-0.1-1.2-0.1
		c-0.46,0-0.82,0.01-1.04,0.03c-0.24,0.01-0.8,0.06-1.71,0.17V92.82c-1.56,1.99-3.04,4.08-4.48,6.28c-1.29,1.96-2.5,4.02-3.68,6.13
		c-0.13,0-0.43-0.03-0.87-0.11c-0.45-0.06-0.82-0.1-1.12-0.1c-0.49,0-0.89,0.03-1.3,0.1c-0.38,0.08-0.63,0.11-0.76,0.11v-19.5
		c0.76,0.05,1.33,0.09,1.7,0.11c0.37,0.05,0.72,0.06,1.03,0.06c0.77,0,1.34-0.02,1.7-0.03c0.49-0.09,0.83-0.13,1.04-0.13V98z
		 M256.17,88.3c1.18,1.72,1.79,3.99,1.79,6.82c0,3.41-0.81,6.04-2.42,7.93c-1.47,1.7-3.33,2.53-5.55,2.53
		c-0.59,0-1.14-0.06-1.63-0.17c-0.55-0.13-1.03-0.33-1.46-0.6c-0.81-0.53-1.51-1.24-2.07-2.14v12.78c-0.99-0.14-1.91-0.2-2.72-0.2
		c-0.83,0-1.74,0.06-2.75,0.2V85.73c0.29,0,0.79,0,1.49,0.07c0.7,0.07,1.08,0.08,1.16,0.08c0.29,0,0.73-0.01,1.31-0.08
		c0.58-0.06,1.02-0.07,1.31-0.07v3.51c0.47-1.22,1.19-2.17,2.09-2.87c0.49-0.37,1.03-0.64,1.62-0.81c0.54-0.16,1.1-0.23,1.71-0.23
		C252.74,85.32,254.79,86.31,256.17,88.3z M251.14,100.79c-0.63,1.3-1.55,2.04-2.78,2.18h-0.04c-1.5,0-2.53-0.89-3.11-2.7
		c-0.39-1.15-0.57-2.64-0.57-4.51c0-1.95,0.19-3.59,0.64-4.9c0.63-1.88,1.65-2.86,3.08-2.95h0.2c1.27,0,2.17,0.67,2.71,2
		c0.54,1.32,0.81,3.2,0.81,5.66C252.08,97.75,251.77,99.5,251.14,100.79"/>
	<g>
		<path class="st1" d="M207.56,54.92c-1.31,3.6-2.64,6.24-3.67,8c-1.06,1.81-3.13,2.76-5.16,2.36c-1.95-0.38-4.74-1.08-8.33-2.37
			c-3.58-1.29-6.18-2.52-7.92-3.46c-1.82-0.98-2.8-3.03-2.45-5.1c0.34-2.01,1.01-4.88,2.32-8.49c1.31-3.61,2.64-6.24,3.68-8
			c1.06-1.81,3.13-2.76,5.16-2.36c1.94,0.38,4.73,1.08,8.32,2.37c3.59,1.29,6.19,2.52,7.93,3.46c1.82,0.98,2.8,3.03,2.45,5.1
			C209.54,48.44,208.87,51.31,207.56,54.92z"/>
		<path class="st2" d="M173.52,45.82c1.33,3.59,2.01,6.46,2.36,8.46c0.36,2.06-0.61,4.11-2.42,5.1c-1.73,0.95-4.32,2.19-7.9,3.5
			c-3.57,1.3-6.36,2.01-8.29,2.4c-2.03,0.41-4.1-0.53-5.17-2.34c-1.04-1.76-2.38-4.38-3.71-7.97c-1.33-3.6-2.01-6.46-2.36-8.46
			c-0.36-2.06,0.61-4.11,2.42-5.1c1.73-0.95,4.32-2.19,7.89-3.49c3.58-1.3,6.36-2.01,8.3-2.4c2.03-0.41,4.1,0.53,5.17,2.34
			C170.85,39.6,172.19,42.22,173.52,45.82z"/>
		<path class="st3" d="M139.56,54.92c-1.31,3.6-2.64,6.24-3.67,8c-1.06,1.81-3.13,2.76-5.16,2.36c-1.95-0.38-4.74-1.08-8.33-2.37
			c-3.58-1.29-6.18-2.52-7.92-3.46c-1.82-0.98-2.8-3.03-2.45-5.1c0.34-2.01,1.01-4.88,2.32-8.49c1.31-3.61,2.64-6.24,3.68-8
			c1.06-1.81,3.13-2.76,5.16-2.36c1.94,0.38,4.73,1.08,8.32,2.37c3.59,1.29,6.19,2.52,7.93,3.46c1.82,0.98,2.8,3.03,2.45,5.1
			C141.54,48.44,140.87,51.31,139.56,54.92z"/>
		<path class="st4" d="M105.52,45.82c1.33,3.59,2.01,6.46,2.36,8.46c0.36,2.06-0.61,4.11-2.42,5.1c-1.73,0.95-4.32,2.19-7.9,3.5
			c-3.57,1.3-6.36,2.01-8.29,2.4c-2.03,0.41-4.1-0.53-5.17-2.34c-1.04-1.76-2.38-4.38-3.71-7.97c-1.33-3.6-2.01-6.46-2.36-8.46
			c-0.36-2.06,0.61-4.11,2.42-5.1c1.73-0.95,4.32-2.19,7.89-3.49c3.58-1.3,6.36-2.01,8.3-2.4c2.03-0.41,4.1,0.53,5.17,2.34
			C102.85,39.6,104.19,42.22,105.52,45.82z"/>
	</g>
</g>
</svg>
